<?xml version="1.0" standalone="no"?><!DOCTYPE svg PUBLIC "-//W3C//DTD SVG 1.1//EN" "http://www.w3.org/Graphics/SVG/1.1/DTD/svg11.dtd"><svg t="1772618291377" class="icon" viewBox="0 0 1024 1024" version="1.1" xmlns="http://www.w3.org/2000/svg" p-id="6201" xmlns:xlink="http://www.w3.org/1999/xlink" width="200" height="200"><path d="M0 0m0 0l1024 0q0 0 0 0l0 1024q0 0 0 0l-1024 0q0 0 0 0l0-1024q0 0 0 0Z" fill="#E8EFF8" p-id="6202"></path><path d="M512 442.181818a93.090909 93.090909 0 1 0 0-186.181818 93.090909 93.090909 0 0 0 0 186.181818z" fill="#247ADE" p-id="6203"></path><path d="M469.620364 706.978909c-10.658909 15.941818 0.349091 37.748364 19.060363 37.748364h349.184c19.223273 0 30.114909-22.900364 18.385455-38.725818l-164.421818-221.789091a45.381818 45.381818 0 0 0-74.891637 1.978181l-147.316363 220.788364z" fill="#A0BFF7" p-id="6204"></path><path d="M165.213091 710.679273c-7.400727 15.825455 3.979636 34.048 21.248 34.048h441.6c17.710545 0 29.090909-19.083636 20.829091-34.932364l-210.478546-405.061818c-18.059636-34.769455-67.584-33.698909-84.200727 1.815273L165.236364 710.679273z" fill="#69CB91" p-id="6205"></path></svg>